<?xml version="1.0" encoding="UTF-8" standalone="no"?>
<!DOCTYPE svg PUBLIC "-//W3C//DTD SVG 1.1//EN" "http://www.w3.org/Graphics/SVG/1.1/DTD/svg11.dtd">
<svg width="100%" height="100%" viewBox="0 0 1080 1080" version="1.1" xmlns="http://www.w3.org/2000/svg" xmlns:xlink="http://www.w3.org/1999/xlink" xml:space="preserve" xmlns:serif="http://www.serif.com/" style="fill-rule:evenodd;clip-rule:evenodd;stroke-linecap:round;stroke-linejoin:round;stroke-miterlimit:1.5;">
    <g transform="matrix(1.01672e-15,0.948539,-0.948539,1.01672e-15,1016.13,26.9089)">
        <path d="M466.389,293.819C480.506,265.586 509.362,247.752 540.928,247.752C572.493,247.752 601.35,265.586 615.466,293.819C681.452,425.79 776.541,615.968 837.842,738.57C850.758,764.403 849.378,795.082 834.193,819.651C819.009,844.22 792.186,859.175 763.303,859.175L318.553,859.175C289.67,859.175 262.847,844.22 247.662,819.651C232.478,795.082 231.097,764.403 244.014,738.57C305.315,615.968 400.404,425.79 466.389,293.819Z" style="fill:rgb(192,192,192);"/>
    </g>
    <g transform="matrix(1.01325,0,0,1.01325,5.53936,-3.86188)">
        <path d="M1017.84,202.739L1017.84,870.766C1017.84,957.057 947.778,1027.11 861.488,1027.11L193.46,1027.11C107.17,1027.11 37.113,957.057 37.113,870.766L37.113,202.739C37.113,116.448 107.17,46.392 193.46,46.392L861.488,46.392C947.778,46.392 1017.84,116.448 1017.84,202.739Z" style="fill:none;stroke:rgb(192,192,192);stroke-width:36.76px;"/>
    </g>
</svg>
