<?xml version="1.0" encoding="UTF-8" standalone="no"?>
<!DOCTYPE svg PUBLIC "-//W3C//DTD SVG 1.1//EN" "http://www.w3.org/Graphics/SVG/1.1/DTD/svg11.dtd">
<svg width="100%" height="100%" viewBox="0 0 36 36" version="1.1" xmlns="http://www.w3.org/2000/svg" xmlns:xlink="http://www.w3.org/1999/xlink" xml:space="preserve" xmlns:serif="http://www.serif.com/" style="fill-rule:evenodd;clip-rule:evenodd;stroke-linejoin:round;stroke-miterlimit:2;">
    <g transform="matrix(0.0416667,0,0,0.0416667,-1.97665,37.4932)">
        <path d="M506.2,-449.08L506.2,-614.87C506.2,-622.003 503.783,-627.977 498.95,-632.79C494.123,-637.597 488.127,-640 480.96,-640C473.793,-640 467.833,-637.597 463.08,-632.79C458.327,-627.977 455.95,-622.003 455.95,-614.87L455.95,-441.44C455.95,-437.527 456.683,-433.727 458.15,-430.04C459.623,-426.353 461.993,-422.88 465.26,-419.62L585.28,-299.59C590.1,-294.77 595.89,-292.297 602.65,-292.17C609.417,-292.037 615.337,-294.51 620.41,-299.59C625.49,-304.663 628.03,-310.56 628.03,-317.28C628.03,-324 625.49,-329.897 620.41,-334.97L506.2,-449.08ZM479.52,-101.08C432.74,-101.08 388.713,-109.933 347.44,-127.64C306.173,-145.353 270.207,-169.5 239.54,-200.08C208.873,-230.66 184.617,-266.58 166.77,-307.84C148.923,-349.093 140,-393.267 140,-440.36C140,-487.453 148.923,-531.577 166.77,-572.73C184.617,-613.883 208.873,-649.863 239.54,-680.67C270.207,-711.47 306.173,-735.723 347.44,-753.43C388.713,-771.143 432.74,-780 479.52,-780C526.3,-780 570.307,-771.143 611.54,-753.43C652.767,-735.723 688.783,-711.47 719.59,-680.67C750.39,-649.863 774.647,-613.877 792.36,-572.71C810.067,-531.543 818.92,-487.407 818.92,-440.3C818.92,-393.193 810.067,-349.027 792.36,-307.8C774.647,-266.567 750.39,-230.66 719.59,-200.08C688.783,-169.5 652.767,-145.353 611.54,-127.64C570.307,-109.933 526.3,-101.08 479.52,-101.08ZM91.33,-678.38C86.257,-683.547 83.787,-689.487 83.92,-696.2C84.06,-702.92 86.667,-708.82 91.74,-713.9L207.59,-827.85C212.41,-832.397 218.303,-834.62 225.27,-834.52C232.237,-834.427 238.137,-831.98 242.97,-827.18C248.05,-822.273 250.48,-816.417 250.26,-809.61C250.033,-802.81 247.507,-796.973 242.68,-792.1L126.72,-678.1C121.727,-673.553 115.74,-671.287 108.76,-671.3C101.773,-671.307 95.963,-673.667 91.33,-678.38ZM867.85,-678.51C863.043,-673.71 857.213,-671.24 850.36,-671.1C843.507,-670.967 837.54,-673.3 832.46,-678.1L716.62,-792.05C711.793,-796.43 709.25,-802.153 708.99,-809.22C708.723,-816.287 711.13,-822.273 716.21,-827.18C720.837,-831.98 726.58,-834.45 733.44,-834.59C740.293,-834.723 746.257,-832.477 751.33,-827.85L867.18,-713.9C872,-709.313 874.583,-703.54 874.93,-696.58C875.283,-689.613 872.923,-683.59 867.85,-678.51ZM479.52,-151.33C559.84,-151.33 628.11,-179.447 684.33,-235.68C740.557,-291.907 768.67,-360.16 768.67,-440.44C768.67,-520.793 740.553,-589.097 684.32,-645.35C628.093,-701.61 559.84,-729.74 479.56,-729.74C399.207,-729.74 330.903,-701.613 274.65,-645.36C218.39,-589.1 190.26,-520.807 190.26,-440.48C190.26,-360.16 218.387,-291.89 274.64,-235.67C330.9,-179.443 399.193,-151.33 479.52,-151.33Z" style="fill:white;fill-rule:nonzero;"/>
    </g>
</svg>
