<?xml version="1.0" encoding="UTF-8" standalone="no"?>
<!DOCTYPE svg PUBLIC "-//W3C//DTD SVG 1.1//EN" "http://www.w3.org/Graphics/SVG/1.1/DTD/svg11.dtd">
<svg width="100%" height="100%" viewBox="0 0 36 36" version="1.1" xmlns="http://www.w3.org/2000/svg" xmlns:xlink="http://www.w3.org/1999/xlink" xml:space="preserve" xmlns:serif="http://www.serif.com/" style="fill-rule:evenodd;clip-rule:evenodd;stroke-linejoin:round;stroke-miterlimit:2;">
    <g transform="matrix(1.5,0,0,1.5,0,0)">
        <path d="M12,1.25C6.063,1.25 1.25,6.063 1.25,12C1.25,17.937 6.063,22.75 12,22.75C17.937,22.75 22.75,17.937 22.75,12C22.75,6.063 17.937,1.25 12,1.25ZM12.75,6C12.75,5.586 12.414,5.25 12,5.25C11.586,5.25 11.25,5.586 11.25,6L11.25,12C11.25,12.414 11.586,12.75 12,12.75L18,12.75C18.414,12.75 18.75,12.414 18.75,12C18.75,11.586 18.414,11.25 18,11.25L12.75,11.25L12.75,6Z" style="fill:rgb(255,250,240);"/>
    </g>
</svg>
