<?xml version="1.0" encoding="UTF-8" standalone="no"?>
<!DOCTYPE svg PUBLIC "-//W3C//DTD SVG 1.1//EN" "http://www.w3.org/Graphics/SVG/1.1/DTD/svg11.dtd">
<svg width="100%" height="100%" viewBox="0 0 36 36" version="1.1" xmlns="http://www.w3.org/2000/svg" xmlns:xlink="http://www.w3.org/1999/xlink" xml:space="preserve" xmlns:serif="http://www.serif.com/" style="fill-rule:evenodd;clip-rule:evenodd;stroke-linejoin:round;stroke-miterlimit:2;">
    <g transform="matrix(0.0416667,0,0,0.0416667,-2,37.9915)">
        <path d="M190.26,-190.26L234.36,-190.26L683.21,-638.69L639.1,-682.8L190.26,-234.36L190.26,-190.26ZM171.28,-140C162.307,-140 154.85,-142.97 148.91,-148.91C142.97,-154.85 140,-162.307 140,-171.28L140,-228.95C140,-237.437 141.693,-245.607 145.08,-253.46C148.467,-261.307 153.03,-268.017 158.77,-273.59L690.49,-805.33C695.27,-809.663 700.75,-813.123 706.93,-815.71C713.117,-818.297 719.587,-819.59 726.34,-819.59C732.82,-819.59 739.143,-818.37 745.31,-815.93C751.477,-813.497 757.1,-809.897 762.18,-805.13L805.74,-761.36C810.787,-756.453 814.423,-750.863 816.65,-744.59C818.883,-738.31 820,-732.033 820,-725.76C820,-719.253 818.763,-712.84 816.29,-706.52C813.817,-700.207 810.3,-694.657 805.74,-689.87L273.59,-158.77C268.017,-153.03 261.307,-148.467 253.46,-145.08C245.607,-141.693 237.437,-140 228.95,-140L171.28,-140ZM769.72,-726.26L726.67,-769.05L769.72,-726.26ZM661.17,-660.51L639.1,-682.8L683.21,-638.69L661.17,-660.51Z" style="fill:white;fill-rule:nonzero;"/>
    </g>
</svg>
