<?xml version="1.0" encoding="UTF-8" standalone="no"?>
<!DOCTYPE svg PUBLIC "-//W3C//DTD SVG 1.1//EN" "http://www.w3.org/Graphics/SVG/1.1/DTD/svg11.dtd">
<svg width="100%" height="100%" viewBox="0 0 36 36" version="1.1" xmlns="http://www.w3.org/2000/svg" xmlns:xlink="http://www.w3.org/1999/xlink" xml:space="preserve" xmlns:serif="http://www.serif.com/" style="fill-rule:evenodd;clip-rule:evenodd;stroke-linejoin:round;stroke-miterlimit:2;">
    <g transform="matrix(0.0416667,0,0,0.0416667,-2,37.8398)">
        <path d="M205.13,-204.62C197.897,-204.62 191.9,-207 187.14,-211.76C182.38,-216.52 180,-222.52 180,-229.76C180,-236.993 182.38,-242.987 187.14,-247.74C191.9,-252.493 197.897,-254.87 205.13,-254.87L252.31,-254.87L252.31,-564.97C252.31,-619.043 268.8,-667.103 301.78,-709.15C334.767,-751.203 377.507,-777.503 430,-788.05L430,-810C430,-823.887 434.857,-835.693 444.57,-845.42C454.283,-855.14 466.077,-860 479.95,-860C493.83,-860 505.64,-855.14 515.38,-845.42C525.127,-835.693 530,-823.887 530,-810L530,-788.05C582.493,-777.503 625.233,-751.203 658.22,-709.15C691.2,-667.103 707.69,-619.043 707.69,-564.97L707.69,-254.87L754.87,-254.87C762.103,-254.87 768.1,-252.49 772.86,-247.73C777.62,-242.97 780,-236.97 780,-229.73C780,-222.49 777.62,-216.493 772.86,-211.74C768.1,-206.993 762.103,-204.62 754.87,-204.62L205.13,-204.62ZM479.93,-92.31C460.03,-92.31 443.017,-99.39 428.89,-113.55C414.757,-127.71 407.69,-144.733 407.69,-164.62L552.31,-164.62C552.31,-144.667 545.223,-127.627 531.05,-113.5C516.877,-99.373 499.837,-92.31 479.93,-92.31ZM302.56,-254.87L657.44,-254.87L657.44,-564.97C657.44,-614.083 640.143,-655.937 605.55,-690.53C570.963,-725.117 529.113,-742.41 480,-742.41C430.887,-742.41 389.037,-725.117 354.45,-690.53C319.857,-655.937 302.56,-614.083 302.56,-564.97L302.56,-254.87ZM149.42,-566.44C142.047,-566.44 135.983,-569.05 131.23,-574.27C126.477,-579.49 124.373,-585.767 124.92,-593.1C128.253,-637.987 139.487,-680.02 158.62,-719.2C177.747,-758.38 202.78,-792.707 233.72,-822.18C239.34,-827.427 245.717,-830.063 252.85,-830.09C259.977,-830.117 265.787,-827.26 270.28,-821.52C274.947,-815.62 276.803,-809.14 275.85,-802.08C274.89,-795.02 271.597,-788.967 265.97,-783.92C240.723,-759.1 220.28,-730.6 204.64,-698.42C189,-666.24 179.513,-631.407 176.18,-593.92C175.1,-586.313 172.217,-579.83 167.53,-574.47C162.837,-569.117 156.8,-566.44 149.42,-566.44ZM810.77,-566.44C803.263,-566.44 797.163,-569.117 792.47,-574.47C787.783,-579.83 784.9,-586.313 783.82,-593.92C780.487,-631.407 771.063,-666.177 755.55,-698.23C740.037,-730.283 719.657,-758.72 694.41,-783.54C688.697,-788.727 685.257,-794.877 684.09,-801.99C682.917,-809.11 684.663,-815.62 689.33,-821.52C693.997,-827.26 699.917,-830.053 707.09,-829.9C714.263,-829.74 720.66,-827.037 726.28,-821.79C757.22,-792.323 782.253,-758.063 801.38,-719.01C820.513,-679.957 831.747,-637.987 835.08,-593.1C835.627,-585.767 833.52,-579.49 828.76,-574.27C824,-569.05 818.003,-566.44 810.77,-566.44Z" style="fill:white;fill-rule:nonzero;"/>
    </g>
</svg>
