<?xml version="1.0" encoding="UTF-8" standalone="no"?>
<!DOCTYPE svg PUBLIC "-//W3C//DTD SVG 1.1//EN" "http://www.w3.org/Graphics/SVG/1.1/DTD/svg11.dtd">
<svg width="100%" height="100%" viewBox="0 0 36 36" version="1.1" xmlns="http://www.w3.org/2000/svg" xmlns:xlink="http://www.w3.org/1999/xlink" xml:space="preserve" xmlns:serif="http://www.serif.com/" style="fill-rule:evenodd;clip-rule:evenodd;stroke-linejoin:round;stroke-miterlimit:2;">
    <g transform="matrix(0.0416667,0,0,0.0416667,-1.27986,37.8392)">
        <path d="M676.72,-204.62L205.13,-204.62C197.897,-204.62 191.9,-207 187.14,-211.76C182.38,-216.527 180,-222.527 180,-229.76C180,-236.993 182.38,-242.987 187.14,-247.74C191.9,-252.493 197.897,-254.87 205.13,-254.87L252.31,-254.87L252.31,-564.97C252.31,-583.81 254.453,-602.397 258.74,-620.73C263.033,-639.07 269.777,-656.587 278.97,-673.28L316.92,-635.33C312.22,-624.003 308.653,-612.46 306.22,-600.7C303.78,-588.94 302.56,-577.03 302.56,-564.97L302.56,-254.87L628.16,-254.87L108.41,-773.74C103.337,-778.48 100.8,-784.293 100.8,-791.18C100.8,-798.067 103.293,-804.05 108.28,-809.13C113.273,-814.203 119.173,-816.74 125.98,-816.74C132.78,-816.74 138.633,-814.203 143.54,-809.13L817.23,-135.03C822.05,-130.203 824.517,-124.403 824.63,-117.63C824.737,-110.85 822.24,-104.907 817.14,-99.8C812.127,-94.787 806.26,-92.28 799.54,-92.28C792.82,-92.28 786.913,-94.817 781.82,-99.89L676.72,-204.62ZM530,-788.03C582.753,-777.837 625.557,-751.693 658.41,-709.6C691.263,-667.507 707.69,-619.297 707.69,-564.97L707.69,-406.05C707.69,-397.677 705.053,-391.393 699.78,-387.2C694.5,-383.013 688.783,-380.92 682.63,-380.92C676.477,-380.92 670.74,-383.08 665.42,-387.4C660.1,-391.727 657.44,-398.01 657.44,-406.25L657.44,-564.97C657.44,-614.083 640.143,-655.937 605.55,-690.53C570.963,-725.117 529.113,-742.41 480,-742.41C461.707,-742.41 443.783,-739.61 426.23,-734.01C408.677,-728.417 392.687,-720.337 378.26,-709.77C371.707,-705.597 364.663,-703.767 357.13,-704.28C349.59,-704.793 343.43,-708.18 338.65,-714.44C334.403,-719.807 332.41,-725.65 332.67,-731.97C332.923,-738.297 335.777,-743.547 341.23,-747.72C354.19,-757.46 368.117,-765.817 383.01,-772.79C397.91,-779.77 413.573,-784.857 430,-788.05L430,-810C430,-823.887 434.857,-835.693 444.57,-845.42C454.283,-855.14 466.077,-860 479.95,-860C493.83,-860 505.64,-855.14 515.38,-845.42C525.127,-835.693 530,-823.887 530,-810L530,-788.03ZM480,-92.31C461.627,-92.31 445.35,-97.553 431.17,-108.04C416.99,-118.527 409.9,-132.323 409.9,-149.43C409.9,-154.023 411.543,-157.703 414.83,-160.47C418.117,-163.237 421.907,-164.62 426.2,-164.62L533.72,-164.62C538.267,-164.62 542.133,-163.223 545.32,-160.43C548.507,-157.643 550.1,-153.96 550.1,-149.38C550.1,-132.34 543.01,-118.567 528.83,-108.06C514.65,-97.56 498.373,-92.31 480,-92.31Z" style="fill:white;fill-rule:nonzero;"/>
    </g>
</svg>
